{"accessors" : [{"bufferView" : 0, "byteOffset" : 0, "componentType" : 5123, "count" : 10704, "type" : "SCALAR", "max" : [8723], "min" : [0]}, {"bufferView" : 1, "byteOffset" : 0, "componentType" : 5126, "count" : 8724, "type" : "VEC3", "max" : [160.66110229492188, 97.81095123291016, 205.9440155029297], "min" : [-164.39114379882812, -8.903179168701172, -155.1273651123047], "name" : "POSITION"}, {"bufferView" : 1, "byteOffset" : 12, "componentType" : 5126, "count" : 8724, "type" : "VEC2", "max" : [1, -0], "min" : [0, -1], "name" : "TEXCOORD_0"}, {"bufferView" : 1, "byteOffset" : 20, "componentType" : 5126, "count" : 8724, "type" : "VEC3", "max" : [0.9999410510063171, 1.0000042915344238, 1.0000028610229492], "min" : [-0.9999502897262573, -1.0000042915344238, -1.000003457069397], "name" : "NORMAL"}, {"bufferView" : 0, "byteOffset" : 21408, "componentType" : 5123, "count" : 72, "type" : "SCALAR", "max" : [57], "min" : [0]}, {"bufferView" : 2, "byteOffset" : 0, "componentType" : 5126, "count" : 58, "type" : "VEC3", "max" : [9.664963722229004, 29.700271606445312, 192.61521911621094], "min" : [-13.610686302185059, 25.864837646484375, 175.386962890625], "name" : "POSITION"}, {"bufferView" : 2, "byteOffset" : 12, "componentType" : 5126, "count" : 58, "type" : "VEC2", "max" : [0.7499939799308777, -0.9694640040397644], "min" : [0.59375, -0.9811509847640991], "name" : "TEXCOORD_0"}, {"bufferView" : 2, "byteOffset" : 20, "componentType" : 5126, "count" : 58, "type" : "VEC3", "max" : [0.785193681716919, 0.7284760475158691, 0.7302197813987732], "min" : [-0.8488402962684631, 0.4485315978527069, 0.2162102609872818], "name" : "NORMAL"}, {"bufferView" : 0, "byteOffset" : 21552, "componentType" : 5123, "count" : 1140, "type" : "SCALAR", "max" : [923], "min" : [0]}, {"bufferView" : 3, "byteOffset" : 0, "componentType" : 5126, "count" : 924, "type" : "VEC3", "max" : [-31.325233459472656, -2.3206100463867188, 39.61030578613281], "min" : [-44.28034210205078, -12.720111846923828, 29.41080093383789], "name" : "POSITION"}, {"bufferView" : 3, "byteOffset" : 12, "componentType" : 5126, "count" : 924, "type" : "VEC2", "max" : [1, -0.014612000435590744], "min" : [0, -1], "name" : "TEXCOORD_0"}, {"bufferView" : 3, "byteOffset" : 20, "componentType" : 5126, "count" : 924, "type" : "VEC3", "max" : [0.9999934434890747, 0.9951165914535522, 0.9952491521835327], "min" : [-0.9999781250953674, -0.9951263666152954, -0.9952491521835327], "name" : "NORMAL"}, {"bufferView" : 0, "byteOffset" : 23832, "componentType" : 5123, "count" : 1140, "type" : "SCALAR", "max" : [923], "min" : [0]}, {"bufferView" : 4, "byteOffset" : 0, "componentType" : 5126, "count" : 924, "type" : "VEC3", "max" : [40.63521194458008, -2.5722200870513916, 39.61030578613281], "min" : [27.680103302001953, -12.971721649169922, 29.41080093383789], "name" : "POSITION"}, {"bufferView" : 4, "byteOffset" : 12, "componentType" : 5126, "count" : 924, "type" : "VEC2", "max" : [1, -0.014612000435590744], "min" : [0, -1], "name" : "TEXCOORD_0"}, {"bufferView" : 4, "byteOffset" : 20, "componentType" : 5126, "count" : 924, "type" : "VEC3", "max" : [0.9999934434890747, 0.9951165914535522, 0.9952491521835327], "min" : [-0.9999781250953674, -0.9951165914535522, -0.9952491521835327], "name" : "NORMAL"}], "asset" : {"generator" : "Aspose.3D 22.12", "version" : "2.0"}, "buffers" : [{"uri" : "data:application/octet-stream;base64,", "byteLength" : 443924}], "bufferViews" : [{"buffer" : 0, "byteOffset" : 0, "byteLength" : 26112, "target" : 34963}, {"buffer" : 0, "byteOffset" : 26116, "byteLength" : 342528, "byteStride" : 32, "target" : 34962}, {"buffer" : 0, "byteOffset" : 368648, "byteLength" : 2304, "byteStride" : 32, "target" : 34962}, {"buffer" : 0, "byteOffset" : 370956, "byteLength" : 36480, "byteStride" : 32, "target" : 34962}, {"buffer" : 0, "byteOffset" : 407440, "byteLength" : 36480, "byteStride" : 32, "target" : 34962}], "meshes" : [{"primitives" : [{"attributes" : {"POSITION" : 1, "TEXCOORD_0" : 2, "NORMAL" : 3}, "indices" : 0, "mode" : 4}]}, {"primitives" : [{"attributes" : {"POSITION" : 5, "TEXCOORD_0" : 6, "NORMAL" : 7}, "indices" : 4, "mode" : 4}]}, {"primitives" : [{"attributes" : {"POSITION" : 9, "TEXCOORD_0" : 10, "NORMAL" : 11}, "indices" : 8, "mode" : 4}]}, {"primitives" : [{"attributes" : {"POSITION" : 13, "TEXCOORD_0" : 14, "NORMAL" : 15}, "indices" : 12, "mode" : 4}]}], "nodes" : [{"mesh" : 0, "name" : "Plane_Material"}, {"mesh" : 1, "name" : "Plane_Material.002"}, {"mesh" : 2, "name" : "Wheel2_Material.002"}, {"mesh" : 3, "name" : "Wheel1_Material.002"}], "scene" : 0, "scenes" : [{"nodes" : [0, 1, 2, 3]}]}